<svg width="340" height="310" viewBox="0 0 340 310" fill="none" xmlns="http://www.w3.org/2000/svg">
<path d="M0.485596 152.176C0.485597 150.968 0.485597 149.76 0.767789 148.442C4.70221 145.775 8.26932 143.115 12.0218 140.68C26.1776 131.492 41.5834 124.648 58.9555 121.761C67.0491 120.416 75.2211 119.442 83.1282 118.332C56.1423 92.9995 49.3684 61.6181 50.1247 43.4922C65.7187 43.1572 80.6263 46.4118 94.8265 51.5167C109.168 56.6722 122.277 63.9937 133.94 74.1621C133.94 72.7022 133.953 72.0043 133.937 71.307C133.903 69.8603 133.852 68.414 133.992 66.6503C134.797 62.4754 135.42 58.6177 136.382 54.5935C136.893 53.1595 136.895 51.8517 137.262 50.6301C142.579 32.9267 152.188 17.2621 165.771 3.46662C166.637 2.58691 166.806 1.16805 167.299 3.23354e-09C168.662 -8.66345e-07 170.026 -8.29295e-07 171.513 0.250087C174.523 3.73698 177.525 6.89806 180.273 10.2241C190.639 22.771 198.366 36.423 201.621 51.821C203.136 58.994 204.238 66.2357 205.51 73.35C228.719 53.2406 257.538 44.8716 289.993 43.3479C288.8 72.795 276.983 97.6826 254.721 118.829C260.269 119.262 265.316 119.299 270.205 120.1C290.132 123.365 308.58 129.869 325.2 140.306C329.973 143.304 335.058 145.912 340 148.698C340 149.35 340 150.002 339.715 150.731C336.013 153.156 332.622 155.534 329.174 157.845C315.592 166.951 300.756 173.872 284.121 177.376C274.84 179.33 265.421 180.767 256.063 182.438C277.152 203.515 287.034 228.567 289.945 256.498C257.34 255.021 229.264 244.77 205.348 226.493C203.941 234.055 203.16 241.453 201.115 248.566C197.012 262.842 190.228 276.116 180.388 288.116C177.05 292.186 174.263 296.611 171.224 300.874C170.488 300.874 169.752 300.874 168.929 300.622C167.845 299.09 166.994 297.693 165.828 296.548C154.911 285.825 146.79 273.545 141.912 259.875C138.043 249.033 135.674 237.771 132.492 226.157C130.761 228.102 128.883 230.214 127.016 232.278C127.026 232.231 127.137 232.233 126.899 231.953C125.529 232.417 124.396 233.161 123.124 234.169C121.725 235.169 120.466 235.905 118.809 236.597C118.046 237.146 117.679 237.738 117.305 238.281C117.296 238.232 117.406 238.215 117.105 237.947C96.1231 248.462 73.8565 254.723 49.3303 256.428C51.1374 228.122 61.9067 203.42 82.7843 182.044C79.3081 181.662 76.2095 181.322 72.6791 180.938C68.9244 180.555 65.6013 180.215 62.0902 179.574C60.4714 179.122 58.9953 179.122 57.6171 178.797C37.6431 174.081 19.9655 165.57 4.39999 153.532C3.4066 152.764 1.80451 152.614 0.485596 152.176ZM194.756 84.7647C197.466 81.3135 201.086 78.6602 200.713 73.4581C199.481 56.298 195.229 39.9374 185.646 24.9437C181.274 18.1025 175.818 11.8053 170.954 5.394C169.504 6.03461 169.132 6.0986 168.939 6.29817C149.343 26.5794 137.854 49.6125 138.747 76.7665C138.799 78.3269 139.682 80.1334 140.819 81.3568C153.069 94.5297 161.473 109.407 166.464 125.855C167.315 128.662 168.425 131.407 169.757 135.136C174.031 116.184 181.963 99.8447 194.756 84.7647ZM123.575 141.838C113.145 136.23 102.763 130.55 92.2473 125.073C90.011 123.908 87.2736 122.794 84.7854 122.825C64.8676 123.07 45.9718 127.246 28.6064 135.933C20.8874 139.794 13.7932 144.637 6.55647 148.95C7.29191 150.23 7.36798 150.557 7.59446 150.729C29.6399 167.418 54.5989 177.66 84.1119 177.44C86.7387 177.42 89.5997 176.13 91.9244 174.83C100.999 169.754 109.436 163.594 118.997 159.442C128.92 155.133 139.869 152.679 149.382 149.721C141.783 147.426 133.014 144.778 123.575 141.838ZM332.14 150.067C330.175 148.573 328.322 146.941 326.229 145.606C305.225 132.218 282.055 123.948 256.01 122.871C252.83 122.739 248.747 123.123 246.491 124.777C230.41 136.564 211.756 143.528 192.038 148.692C190.945 148.979 189.893 149.391 188.151 149.967C210.876 154.134 230.363 162.355 247.219 175.448C248.84 176.707 251.554 177.5 253.736 177.46C283.446 176.919 309.354 167.505 332.14 150.067ZM174.322 181.938C172.838 176.917 171.354 171.896 169.618 166.023C165.059 185.821 156.129 202.827 141.811 217.433C139.332 219.962 138.514 222.441 138.624 225.637C139.351 246.92 147.219 266.096 160.286 283.733C162.999 287.396 166.154 290.802 169.444 294.731C171.656 292.206 173.315 290.438 174.82 288.573C189.865 269.933 199.164 249.408 200.39 226.334C200.51 224.091 200.035 221.17 198.49 219.614C187.636 208.695 179.767 196.346 174.322 181.938ZM210.338 216.235C226.269 226.477 244.083 232.127 263.721 233.79C258.967 182.781 213.896 153.169 172.373 152.712C174.953 178.431 185.951 200.1 210.338 216.235ZM76.7545 71.2708C79.2173 92.1604 88.1318 110.428 105.673 124.803C123.097 139.083 144.008 146.564 167.715 148.572C161.714 93.7447 113.402 67.481 76.254 67.583C76.3618 68.5816 76.4677 69.5629 76.7545 71.2708ZM252.562 103.759C259.301 92.3144 263.782 80.336 264.263 67.0696C237.856 69.1015 215.266 77.0826 197.886 94.4387C182.613 109.691 174.511 127.785 172.348 148.169C206.403 145.902 235.63 129.752 252.562 103.759ZM120.5 165.02C92.3243 181.013 79.0875 204.67 75.0113 233.508C106.606 230.527 132.907 217.83 148.763 198.194C159.804 184.521 166.089 169.393 167.223 152.312C150.343 153.536 135.086 157.253 120.5 165.02Z" fill="#B3DEFB"/>
<path d="M282.188 202.012C287.566 202 293.035 202.535 298.496 202.477C301.129 202.45 303.746 201.306 306.835 200.555C302.11 190.481 294.264 184.337 282.396 181.76C286.946 181.989 292.103 181.571 296.708 182.791C310.028 186.319 318.803 194.505 324.304 206.107C309.373 211.586 295.503 209.976 282.188 202.012Z" fill="#B3DEFB"/>
<path d="M207.602 256.148C214.211 266.778 218.503 270.644 228.081 273.857C231.827 266.264 232.026 258.733 228.306 251.126C227.28 249.028 225.986 247.033 224.974 244.683C236.287 253.153 240.854 263.968 238.045 277.083C237.366 280.251 236.789 283.436 236.087 287.01C219.738 281.378 210.333 271.363 207.602 256.148Z" fill="#B3DEFB"/>
<path d="M223.145 242.375C222.627 242.49 222.039 242.321 221.335 241.867C221.837 241.752 222.457 241.921 223.145 242.375Z" fill="#B3DEFB"/>
<path d="M281.146 201.18C281.403 201.058 281.745 201.151 282.114 201.495C281.838 201.628 281.535 201.513 281.146 201.18Z" fill="#B3DEFB"/>
<path d="M224.161 243.278C223.828 243.414 223.472 243.303 223.149 242.911C223.5 242.764 223.819 242.897 224.161 243.278Z" fill="#B3DEFB"/>
<path d="M225.14 244.149C224.794 244.291 224.428 244.185 224.111 243.792C224.481 243.637 224.8 243.769 225.14 244.149Z" fill="#B3DEFB"/>
<path d="M108.126 251.399C108.756 256.765 108.989 262.222 109.382 267.67C109.448 268.587 110.2 269.465 110.736 270.567C123.434 265.778 131.018 257.893 132.572 245.446C135.539 253.483 132.593 261.263 128.548 268.331C123.658 276.874 115.44 282.804 104.739 285.872C99.4002 274.011 100.573 262.555 108.126 251.399Z" fill="#B3DEFB"/>
<path d="M44.3075 184.364C43.3126 185.686 42.0225 187.079 40.5496 188.299C35.786 192.244 32.4287 196.89 30.8156 203.11C39.6199 205.366 47.8548 204.737 55.7626 200.908C58.1826 199.737 60.4428 198.306 63.1636 197.1C59.6126 203.656 53.1649 207.376 45.7181 209.933C36.752 213.012 27.605 212.853 18.391 211.171C18.6077 201.464 31.2188 187.38 44.3075 184.364Z" fill="#B3DEFB"/>
<path d="M66.5179 193.844C66.3862 193.375 66.5804 192.831 67.1025 192.179C67.2348 192.636 67.0393 193.203 66.5179 193.844Z" fill="#B3DEFB"/>
<path d="M109.027 249.635C109.23 250.079 109.153 250.636 108.756 251.267C108.541 250.81 108.643 250.279 109.027 249.635Z" fill="#B3DEFB"/>
<path d="M65.3582 195.773C65.1837 195.294 65.3356 194.678 65.8568 193.975C66.0456 194.469 65.8652 195.052 65.3582 195.773Z" fill="#B3DEFB"/>
<path d="M46.6298 183.585C46.4243 183.981 45.8583 184.3 44.9735 184.508C45.193 184.1 45.7311 183.804 46.6298 183.585Z" fill="#B3DEFB"/>
<path d="M230.283 47.9216C230.35 42.5342 230.929 37.0088 231.07 31.4746C231.149 28.3558 228.947 28.0916 226.084 29.1692C216.908 32.6237 210.496 38.3615 206.99 47.0052C206.476 32.6881 214.728 22.6735 228.531 15.9217C238.379 11.1048 239.732 12.1103 239.961 22.3C240.175 31.8151 237.963 40.5059 230.283 47.9216Z" fill="#B3DEFB"/>
<path d="M296.193 112.178C299.426 108.158 303.126 104.191 306.6 100.075C307.63 98.8548 308.023 97.2132 308.939 95.2767C296.931 91.9306 286.541 93.9012 276.594 100.118C279.369 94.008 285.395 90.7038 291.659 87.9663C300.831 83.9581 310.64 83.4608 320.59 85.3623C321.586 85.5526 322.463 86.2333 323.624 86.7975C318.948 99.1416 310.745 108.133 296.193 112.178Z" fill="#B3DEFB"/>
<path d="M294.295 112.981C294.429 112.623 294.863 112.332 295.576 112.095C295.434 112.448 295.014 112.748 294.295 112.981Z" fill="#B3DEFB"/>
<path d="M274.968 100.944C275.097 101.4 274.907 101.917 274.4 102.539C274.273 102.098 274.461 101.552 274.968 100.944Z" fill="#B3DEFB"/>
<path d="M275.986 100.043C276.137 100.334 276.009 100.648 275.568 100.937C275.406 100.63 275.556 100.348 275.986 100.043Z" fill="#B3DEFB"/>
<path d="M55.5151 96.326C48.5167 95.4397 41.3749 93.3972 34.137 96.2493C34.293 105.628 44.9076 114.854 59.1081 117.932C40.105 119.515 22.3859 108.921 16.2771 89.8631C30.5015 86.0936 43.4857 88.2213 55.5151 96.326Z" fill="#B3DEFB"/>
<path d="M131.956 38.823C130.573 38.0926 129.251 36.9545 127.82 35.9366C123.726 33.0239 119.588 30.16 115.027 26.9686C109.845 37.3902 110.955 46.3096 116.343 55.3397C107.502 49.1882 102.389 41.0108 102.63 30.7495C102.749 25.689 103.69 20.6231 104.641 15.6168C104.818 14.6857 107.226 13.1308 107.921 13.3772C118.441 17.1048 129.82 27.0468 131.956 38.823Z" fill="#B3DEFB"/>
<path d="M132.864 41.5123C132.384 41.1173 131.982 40.4065 131.747 39.4209C132.257 39.8295 132.599 40.5129 132.864 41.5123Z" fill="#B3DEFB"/>
<path d="M116.313 55.8784C116.59 55.7998 116.917 55.9767 117.284 56.4289C117.005 56.5141 116.684 56.3241 116.313 55.8784Z" fill="#B3DEFB"/>
<path opacity="0.5" d="M216.549 302.08C216.549 306.453 200.681 310 181.105 310C161.531 310 145.662 306.453 145.662 302.08C145.662 297.704 161.531 294.157 181.105 294.157C200.681 294.157 216.549 297.703 216.549 302.08Z" fill="#4D697C"/>
<path d="M156.511 16.2599C157.048 15.7223 165.432 12.3078 165.994 12.0264C166.556 11.7456 169.314 11.643 172.072 11.2092C174.83 10.7755 177.154 9.9325 177.256 10.0093C177.358 10.0861 177.511 12.2523 172.863 13.1992C172.863 13.1992 175.758 15.8197 177.154 17.2113C177.282 17.3391 176.132 18.0795 174.396 17.5431C174.396 17.5431 174.969 18.6307 174.625 19.1781C174.498 19.382 172.455 18.7185 170.462 18.7437C168.47 18.7695 164.971 19.586 162.673 19.0754C162.673 19.0754 161.012 20.0972 159.403 25.512C157.794 30.9261 157.3 38.9898 156.655 43.1853C156.009 47.3808 154.719 49.7477 154.61 51.4149C154.503 53.0821 156.062 57.5468 156.546 62.9796C157.03 68.4124 157.407 71.5862 158.698 74.9206C159.989 78.255 166.444 88.9594 166.766 90.0889C166.766 90.0889 169.671 89.3356 170.639 88.099C171.607 86.8616 172.092 80.8911 172.146 79.9765C172.146 79.9765 169.187 80.1378 168.756 79.8151C168.326 79.4924 167.089 71.7469 167.035 70.1332C166.981 68.5196 168.272 67.0137 168.648 66.7981C169.025 66.5832 167.949 65.3459 167.949 65.0231C167.949 64.7004 168.756 60.6127 170.209 58.3536C171.661 56.0945 175.264 52.0604 180.751 52.5445C186.237 53.0285 190.164 56.3094 191.025 59.3218C191.025 59.3218 193.917 58.981 195.596 61.7423C197.264 64.4855 198.179 72.5001 191.347 74.6514C191.347 74.6514 188.766 81.7515 183.763 82.9889C183.763 82.9889 182.794 90.8957 182.902 92.6707C183.01 94.4458 186.076 97.2425 186.56 97.3503C187.044 97.4581 189.841 95.1448 192.423 93.5854C195.005 92.0253 199.684 90.4116 200.33 89.9811C200.975 89.5512 208.022 81.8057 210.066 79.4388C212.109 77.0719 215.821 74.0596 216.198 73.5219C216.574 72.9842 217.704 67.1209 219.693 62.2799C221.683 57.439 225.557 43.9379 224.965 42.0557C224.373 40.1729 221.953 38.9362 220.984 37.8067C220.016 36.6771 216.681 33.3962 215.982 32.7508C215.283 32.1053 217.004 31.5677 218.295 32.2667C219.586 32.9657 221.899 35.0099 222.383 34.6872C222.867 34.3644 222.421 30.0683 222.084 29.4409C221.747 28.8135 219.517 28.1635 218.273 27.3115C217.03 26.4601 217.489 25.317 217.691 25.3396C217.893 25.3622 219.271 25.8218 219.271 25.8218C219.271 25.8218 217.603 24.6599 218.504 23.3987C218.605 23.2574 221.873 25.6985 222.477 26.2633C223.082 26.828 226.996 30.096 227.137 30.3581C227.278 30.6201 231.05 39.4952 231.292 40.6454C231.534 41.795 230.183 49.8839 229.537 57.0646C228.892 64.2453 224.454 75.9443 223.406 77.5579C222.357 79.1716 213.885 91.516 208.56 96.9217C203.235 102.327 194.763 109.105 192.504 113.946C190.245 118.787 182.905 134.034 183.066 138.391C183.228 142.747 187.181 146.631 189.601 150.457C192.022 154.285 198.503 165.013 193.878 174.267C193.017 175.989 185.917 200.732 179.677 214.501C179.677 214.501 180.754 221.816 180.539 224.828C180.539 224.828 183.585 232.45 185.03 240.673C186.474 248.895 184.586 262.562 183.808 266.119C183.03 269.674 183.808 273.564 184.475 273.786C185.141 274.008 189.141 275.229 189.586 276.674C190.031 278.119 187.364 287.339 187.808 291.896C188.252 296.452 191.219 304.878 188.919 307.563C188.252 308.341 185.141 307.452 184.697 306.785C184.253 306.118 181.474 300.008 180.251 297.34C179.029 294.674 175.67 282.118 175.572 276.117C175.474 270.117 172.362 255.339 172.14 253.894C172.14 253.894 169.362 265.339 168.807 268.116C168.251 270.895 167.806 275.56 168.14 277.228C168.474 278.895 171.807 286.673 171.474 288.451C171.14 290.229 169.029 298.563 168.474 298.785C167.918 299.007 163.807 299.008 163.029 298.007C162.251 297.007 160.695 285.785 161.029 282.451C161.029 282.451 157.14 276.784 157.918 274.45C158.695 272.117 161.251 269.562 161.807 267.784C162.362 266.006 162.028 250.117 162.362 243.229C162.695 236.339 165.918 224.117 165.918 224.117C165.918 224.117 163.473 216.45 160.696 209.338C157.918 202.227 152.363 181.449 151.807 168.337C151.251 155.225 156.363 143.448 156.141 137.448C155.919 131.447 154.029 119.67 153.03 114.559C152.03 109.448 152.696 101.892 152.474 97.4471C152.252 93.0025 148.919 77.3353 147.807 69.3354C146.696 61.335 146.363 49.8903 146.474 49.1125C146.696 47.5576 150.474 34.1134 152.474 28.2242C154.474 22.335 155.989 16.7828 156.511 16.2599Z" fill="#10496F"/>
<path d="M174.074 12.3988C171.951 12.8919 171.051 13.1488 170.665 13.3205C170.279 13.4922 167.448 15.872 167.384 16.1508C167.319 16.4297 168.563 16.6007 170.107 16.7724C172.809 17.0725 174.288 17.2868 174.627 19.178C174.969 18.6307 174.397 17.5431 174.397 17.5431C172.53 15.9791 168.735 15.9578 168.606 15.8933C168.477 15.8287 170.45 14.3706 171.05 13.8988C171.65 13.427 172.865 13.1991 172.865 13.1991C177.513 12.2522 177.36 10.0854 177.258 10.0093C177.258 10.0093 176.197 11.9056 174.074 12.3988Z" fill="#009BFF"/>
<path d="M172.298 79.2136C171.754 78.9715 168.759 79.8151 168.759 79.8151C169.189 80.1379 172.148 79.9765 172.148 79.9765C172.094 80.8911 171.61 86.8616 170.642 88.099C169.673 89.3357 166.769 90.0889 166.769 90.0889C166.769 90.0889 171.149 89.8637 171.996 88.7748C172.844 87.6859 172.843 79.4556 172.298 79.2136Z" fill="#009BFF"/>
<path d="M178.738 175.356C178.738 175.356 177.152 196.449 177.036 201.303C176.921 206.158 176.252 214.178 177.009 217.617C177.891 221.626 179.926 226.157 181.775 232.977C183.053 237.686 184.769 248.455 185.139 256.458C185.613 251.259 185.818 245.159 185.03 240.675C183.585 232.452 180.538 224.83 180.538 224.83C180.754 221.818 179.677 214.502 179.677 214.502C178.516 210.36 178.077 203.269 178.077 197.835C178.077 192.403 178.738 175.356 178.738 175.356Z" fill="#009BFF"/>
<path d="M167.575 229.323C166.768 228.032 165.917 224.12 165.917 224.12C165.89 226.894 167.297 230.321 167.758 231.145C168.22 231.968 169.189 234.406 169.763 238.037C170.338 241.668 172.14 253.897 172.14 253.897C172.293 254.889 173.807 262.164 174.773 268.568C174.123 258.83 170.889 238.972 170.48 236.584C169.995 233.76 168.382 230.613 167.575 229.323Z" fill="#009BFF"/>
</svg>
