<svg width="185" height="114" viewBox="0 0 185 114" fill="none" xmlns="http://www.w3.org/2000/svg">
<path d="M185 80.7082C123.474 80.8894 61.9488 80.8894 0.211469 80.8894C0 80.4068 0 79.925 0 79.2621C4.95669 79.0814 9.91334 79.0814 14.405 79.0814C15.0551 78.009 15.3744 77.0528 16.0269 76.4708C25.0356 68.4361 35.5407 63.707 47.5418 62.3505C49.2339 62.1593 50.9282 61.9908 52.9845 61.7729C51.4851 59.9866 50.1052 58.4601 48.8553 56.8333C41.9747 47.8786 38.3891 37.6621 37.4621 26.4713C37.1459 22.6544 37.2322 22.6677 41.0023 22.9869C53.6184 24.0553 64.634 28.8156 74.0496 37.2952C74.4837 37.6861 74.985 38.0019 75.9754 38.7409C76.3369 23.5778 82.2348 11.1039 92.0005 0.143797C92.0488 0 92.2744 0 92.3872 0C97.9268 6.03124 102.528 12.6444 104.852 20.4649C106.401 25.6789 107.124 31.1397 108.2 36.4936C108.31 37.0435 108.297 37.6182 108.376 38.6275C119.342 28.1452 132.297 23.5112 147.088 22.7817C147.426 30.2879 145.602 37.2037 142.846 43.8942C140.106 50.5461 136.133 56.4352 131.113 61.5081C135.862 62.4092 140.597 63.0229 145.174 64.2362C154.013 66.5788 161.748 71.1737 168.848 76.8617C169.357 77.2697 169.548 78.0777 170.093 79.0787C174.546 79.0787 179.561 79.0787 184.788 79.08C185 79.5635 185 80.0453 185 80.7082ZM97.2554 9.04835C95.6946 6.97538 94.1339 4.90241 92.5532 2.80247C83.5848 11.2 76.7412 29.0657 78.0149 40.3708C78.084 40.9847 78.4319 41.649 78.8384 42.1303C84.4611 48.7882 88.1931 56.4248 90.6189 64.7491C91.1003 66.4012 91.612 68.0443 92.2613 70.1935C94.438 59.4864 98.5996 50.3622 105.063 42.279C105.828 41.3232 106.394 39.876 106.368 38.6712C106.142 28.0674 103.216 18.2499 97.2554 9.04835ZM117.189 39.8254C100.996 47.9283 93.735 66.1256 93.8185 77.0569C106.924 75.356 118.203 70.3576 126.497 59.7236C132.16 52.4612 135.196 44.1988 135.761 34.8879C129.152 35.4346 123.15 36.8968 117.189 39.8254ZM71.0788 41.9983C64.4951 37.6829 57.2765 35.3641 49.3955 34.832C50.7978 62.6026 73.5064 76.2783 91.3954 76.8883C89.4755 62.4815 83.7044 50.4498 71.0788 41.9983ZM85.7813 79.0787C86.381 79.0511 86.9811 79.0235 87.5813 78.996C87.1634 78.6376 86.7515 78.5034 86.33 78.4148C75.147 76.074 64.8055 71.922 55.9648 64.4482C55.3678 63.9438 54.3065 63.7852 53.4682 63.8028C40.3281 64.0785 28.6236 68.3091 18.4679 76.7121C18.0488 77.0592 17.7656 77.5702 17.0421 78.4781C18.5727 78.7325 19.6141 79.0552 20.6558 79.0565C42.2275 79.0859 63.7993 79.0787 85.7813 79.0787ZM156.744 70.9803C148.941 66.6064 140.539 64.3483 131.643 63.7721C129.837 63.6551 128.347 64.0057 126.902 65.2304C121.684 69.6544 115.727 72.8344 109.265 75.0021C104.79 76.5029 100.231 77.7523 95.8304 79.0778C118.823 79.0778 141.977 79.0832 165.131 79.0484C165.766 79.0475 166.4 78.6146 167.034 78.3827C167.092 78.1328 167.151 77.8834 167.208 77.6335C163.819 75.4671 160.43 73.3003 156.744 70.9803Z" fill="#56BBFC"/>
<path d="M185 102.399C123.473 102.579 61.9466 102.579 0.209822 102.579C2.68948e-08 102.098 0 101.616 0 100.953C61.5269 100.773 123.053 100.774 184.79 100.774C185 101.254 185 101.736 185 102.399Z" fill="#56BBFC"/>
<path d="M120.435 15.9858C119.92 14.3352 118.961 14.8411 118.056 15.2486C114.967 16.6388 112.378 18.6031 110.736 21.659C110.47 22.1527 110.113 22.5966 109.693 23.2194C108.588 17.147 115.939 8.59833 123.396 6.96704C125.682 11.9995 124.255 20.1902 120.467 24.1305C120.467 21.5268 120.467 18.8506 120.435 15.9858Z" fill="#56BBFC"/>
<path d="M141.945 51.2876C146.565 44.985 154.891 42.4789 162.621 45.0636C161.852 50.4326 155.874 56.9191 151.316 57.6349C152.958 55.1639 154.728 52.4995 156.676 49.5672C151.154 48.0827 146.633 48.5034 142.285 51.4683C142.07 51.4362 141.945 51.2876 141.945 51.2876Z" fill="#56BBFC"/>
<path d="M142.133 51.5117C141.967 51.6735 141.739 51.7607 141.512 51.848C141.585 51.6979 141.657 51.5484 141.838 51.3432C141.945 51.2876 142.071 51.4367 142.133 51.5117Z" fill="#56BBFC"/>
<path d="M72.8864 15.1624C73.7171 17.1101 74.4557 18.919 75.1971 20.7346C72.5087 18.4532 69.9995 16.3237 67.2218 13.9665C64.7473 19.1676 65.4449 23.6721 67.5633 28.6069C61.374 22.7247 59.7031 14.1729 63.0331 6.87817C67.3224 8.35871 70.3938 11.2784 72.8864 15.1624Z" fill="#56BBFC"/>
<path d="M31.2654 46.2744C33.7438 47.1628 36.0344 47.992 38.325 48.8212C38.2691 49.0924 38.2132 49.364 38.1573 49.6355C37.29 49.5578 36.4102 49.349 35.5578 49.4299C33.6677 49.6089 31.7914 49.9333 29.9094 50.1986C30.5492 51.829 30.8488 53.7424 31.9095 55.0235C33.4491 56.883 35.5185 58.3105 37.4057 59.8691C37.9322 60.3038 38.6126 60.5524 39.5225 61.0504C32.5231 62.0292 22.934 53.9398 22.1907 46.2563C25.1871 46.2423 28.1323 46.2287 31.2654 46.2744Z" fill="#56BBFC"/>
<path d="M29.8511 82.5191C29.8934 82.5191 29.6958 82.4587 29.6958 82.4587C29.6958 82.4587 29.8088 82.5196 29.8511 82.5191Z" fill="#56BBFC"/>
<path d="M30.7251 83.2175C30.8431 83.3888 30.7982 83.5542 30.7533 83.7191C30.6895 83.5501 30.6258 83.3811 30.7251 83.2175Z" fill="#56BBFC"/>
<path d="M23.7153 99.2337C22.9825 99.2337 22.2672 99.1727 21.5693 99.0503C20.8714 98.9278 20.2346 98.7181 19.6588 98.4212C19.0831 98.1415 18.6207 97.7484 18.2718 97.2418C17.9403 96.7176 17.7745 96.0538 17.7745 95.2498C17.7745 94.3763 17.9839 93.6425 18.4026 93.0482C18.8214 92.4368 19.371 91.9474 20.0514 91.5805C20.7318 91.1959 21.4646 90.899 22.2497 90.6893C23.0523 90.4797 23.8287 90.331 24.5789 90.2438C25.3466 90.1389 26.0183 90.0779 26.5941 90.0603C26.0707 89.4489 25.5996 88.6798 25.1809 87.7538C24.7621 86.8279 24.5528 85.9277 24.5528 85.0542C24.5528 84.7397 24.5876 84.4338 24.6574 84.1369C24.7272 83.84 24.8406 83.5603 24.9977 83.2982C25.1721 82.9836 25.4513 82.7215 25.8351 82.5119C26.219 82.2846 26.6377 82.1101 27.0913 81.9877C27.5449 81.8652 27.9637 81.8042 28.3475 81.8042C28.9931 81.8042 29.5252 81.9791 29.9439 82.3284C30.3627 82.6605 30.7552 83.0013 31.1216 83.3506C31.2088 83.4378 31.3135 83.5426 31.4357 83.6651C31.5752 83.7699 31.7235 83.8486 31.8806 83.901C31.9504 83.9186 32.0289 83.9358 32.1161 83.9534C32.2208 83.9534 32.308 83.9796 32.3778 84.032C32.5174 84.1545 32.6395 84.338 32.7442 84.5824C32.8663 84.8269 32.9623 85.0456 33.0321 85.2377C33.1368 85.5174 33.1891 85.8843 33.1891 86.3385C33.1891 86.6878 33.1455 87.0114 33.0582 87.3083C32.9884 87.6052 32.875 87.7538 32.718 87.7538C32.6308 87.7538 32.5174 87.6752 32.3778 87.5179C32.1684 87.2735 32.0201 86.9499 31.9329 86.5482C31.8457 86.1288 31.7148 85.7533 31.5403 85.4212C31.331 84.967 31.1041 84.5476 30.8599 84.1631C30.6157 83.7785 30.319 83.4468 29.9701 83.1671C29.8305 83.0099 29.6212 82.8526 29.342 82.6953C29.0803 82.5381 28.775 82.4594 28.426 82.4594C28.1643 82.4594 27.9462 82.5033 27.7718 82.5905C27.1611 82.835 26.7249 83.2372 26.4632 83.7961C26.219 84.3551 26.0968 84.967 26.0968 85.6308C26.0968 86.4348 26.2277 87.2382 26.4894 88.0421C26.7511 88.8284 27.0477 89.4313 27.3792 89.8506C27.4664 89.9555 27.6758 90.0255 28.0073 90.0603C28.3562 90.0779 28.6005 90.1041 28.7401 90.1389C29.0192 90.1565 29.2199 90.2176 29.342 90.3224C29.4641 90.4272 29.5252 90.5407 29.5252 90.6631C29.5252 90.8552 29.4118 91.0215 29.185 91.1611C29.0978 91.2483 28.9494 91.2922 28.7401 91.2922C28.4435 91.2922 28.112 91.2397 27.7456 91.1349C27.3792 91.0124 27.0739 90.9252 26.8296 90.8728C26.3062 90.8904 25.7043 90.9776 25.0238 91.1349C24.3434 91.2922 23.6455 91.5195 22.9302 91.8164C22.2323 92.0961 21.578 92.4454 20.9674 92.8647C20.3741 93.2841 19.8857 93.7645 19.5018 94.3063C19.1354 94.8305 18.9435 95.4071 18.926 96.0361C18.9086 96.7352 19.179 97.338 19.7373 97.8446C20.2956 98.3512 21.3163 98.6047 22.7993 98.6047C23.4972 98.6047 24.2474 98.5437 25.05 98.4212C25.8526 98.2988 26.6377 98.1329 27.4054 97.9232C28.1905 97.7312 28.9146 97.5215 29.5775 97.2942C30.2405 97.0669 30.7814 96.8401 31.2001 96.6128C31.5316 96.4555 31.9329 96.2196 32.404 95.9051C32.875 95.5729 33.3374 95.1974 33.791 94.7781C34.2621 94.3587 34.646 93.9308 34.9425 93.4938C35.2566 93.0396 35.4136 92.6026 35.4136 92.1833C35.4136 92.1485 35.4136 92.1047 35.4136 92.0522C35.4136 91.9998 35.4049 91.956 35.3874 91.9212C35.37 91.8511 35.4049 91.8164 35.4921 91.8164C35.5793 91.8164 35.6404 91.834 35.6753 91.8688C35.9196 92.2181 36.0417 92.6027 36.0417 93.022C36.0417 93.581 35.841 94.1314 35.4398 94.6732C35.0559 95.215 34.5936 95.704 34.0527 96.141C33.5119 96.578 33.0146 96.9187 32.561 97.1632C32.0201 97.4777 31.3659 97.7574 30.5982 98.0019C29.848 98.264 29.0541 98.4822 28.2167 98.6571C27.3967 98.8492 26.5941 98.9893 25.809 99.0765C25.0238 99.1813 24.3259 99.2337 23.7153 99.2337ZM40.4337 97.8708C39.7009 97.8708 39.1862 97.6874 38.8896 97.3204C38.6105 96.9535 38.4709 96.4993 38.4709 95.9575C38.4709 95.4509 38.5843 94.8129 38.8111 94.0442C39.0554 93.2755 39.3694 92.4454 39.7533 91.5543C40.1371 90.6631 40.5471 89.7806 40.9833 88.9071C41.4369 88.0159 41.8818 87.2034 42.318 86.4696C42.7716 85.7181 43.1642 85.1152 43.4957 84.6611C43.8271 84.2241 44.1848 83.7876 44.5687 83.3506C44.9524 82.9136 45.3801 82.5467 45.8512 82.2498C46.3223 81.9529 46.8543 81.8042 47.4476 81.8042C47.8488 81.8042 48.189 81.9176 48.4683 82.1449C48.7647 82.3546 48.9132 82.6777 48.9132 83.1147C48.9132 83.2896 48.878 83.4902 48.8085 83.7175C48.7562 83.9448 48.6601 84.1807 48.5206 84.4252C47.4562 86.2775 46.1824 87.9897 44.6997 89.5623C43.234 91.1349 41.6811 92.5941 40.0411 93.9394C39.9713 94.2014 39.9015 94.4373 39.8318 94.647C39.7794 94.8567 39.7358 95.0225 39.7009 95.145C39.6835 95.2322 39.6747 95.3285 39.6747 95.4333C39.6747 95.5205 39.6747 95.6082 39.6747 95.6954C39.6747 96.1148 39.7445 96.4817 39.8841 96.7962C40.0237 97.1107 40.2592 97.268 40.5907 97.268C40.9048 97.268 41.2886 97.1193 41.7422 96.8224C42.2133 96.5079 42.6844 96.1324 43.1555 95.6954C43.6265 95.2413 44.054 94.8043 44.4378 94.3849C44.8215 93.9656 45.0923 93.6425 45.2493 93.4152C45.3016 93.3627 45.354 93.3365 45.4063 93.3365C45.4758 93.3365 45.5281 93.3713 45.5633 93.4414C45.6157 93.5114 45.6157 93.5986 45.5633 93.7035C45.3887 94.0004 45.1094 94.3673 44.7259 94.8043C44.3418 95.2413 43.9144 95.6868 43.4433 96.141C42.9723 96.578 42.5186 96.9621 42.0825 97.2942C41.5416 97.6788 40.992 97.8708 40.4337 97.8708ZM40.4075 92.891C41.0705 92.4368 41.7596 91.8511 42.475 91.1349C43.1903 90.401 43.8882 89.6061 44.5687 88.7498C45.2664 87.8935 45.8945 87.0462 46.4531 86.2075C47.0289 85.3687 47.491 84.6086 47.8402 83.9272C47.9449 83.7351 48.0144 83.5688 48.0496 83.4292C48.1019 83.2719 48.1281 83.1323 48.1281 83.0099C48.1281 82.6777 47.9882 82.5119 47.7093 82.5119C47.4648 82.5119 47.1598 82.6429 46.7934 82.905C45.8512 83.6389 44.9786 84.5824 44.1761 85.7357C43.3735 86.8713 42.6582 88.0683 42.0301 89.3264C41.402 90.5845 40.8611 91.7725 40.4075 92.891ZM50.8593 88.4877C50.6328 88.4877 50.3973 88.4701 50.1527 88.4353C49.9086 88.3829 49.7863 88.217 49.7863 87.9373C49.7863 87.8849 49.9 87.7624 50.1265 87.5704C50.3711 87.3783 50.6152 87.1858 50.8593 86.9937C51.121 86.7841 51.278 86.6616 51.3304 86.6268C51.6273 86.3823 51.8105 86.2599 51.88 86.2599C51.9675 86.2599 51.9675 86.3733 51.88 86.6006C51.7929 86.8279 51.7491 87.0285 51.7491 87.2034C51.7491 87.2906 51.6968 87.4393 51.5921 87.649C51.4874 87.8587 51.3656 88.0507 51.2257 88.2256C51.0863 88.4005 50.964 88.4877 50.8593 88.4877ZM48.0067 97.8708C47.6926 97.8708 47.4048 97.8008 47.1431 97.6611C46.8989 97.5215 46.7158 97.2594 46.5935 96.8749C46.5763 96.8224 46.5587 96.77 46.5411 96.7176C46.5411 96.6652 46.5411 96.6042 46.5411 96.5341C46.5411 96.1848 46.6196 95.7478 46.7767 95.2236C46.9337 94.6994 47.1259 94.1929 47.3524 93.7035C47.2477 93.8431 47.1259 94.018 46.986 94.2277C46.8466 94.4197 46.6458 94.6732 46.3841 94.9877C46.3146 95.0578 46.2361 95.0926 46.1486 95.0926C46.0267 95.0926 45.9654 95.0225 45.9654 94.8829C45.9654 94.7781 46.0006 94.6908 46.0701 94.6208C46.524 94.0442 46.9251 93.5286 47.2739 93.0744C47.6403 92.6203 47.911 92.2357 48.0852 91.9212C48.0852 91.9036 48.0766 91.895 48.059 91.895C48.059 91.8774 48.059 91.8602 48.059 91.8426C48.059 91.7901 48.0852 91.7115 48.1375 91.6067C48.2774 91.1873 48.4169 90.838 48.5563 90.5583C48.7133 90.2614 48.8794 90.0951 49.0535 90.0603C49.0887 90.0603 49.1235 90.0603 49.1582 90.0603C49.1934 90.0427 49.2281 90.0341 49.2629 90.0341C49.4551 90.0341 49.6293 90.0779 49.7863 90.1651C49.9433 90.2523 50.0218 90.3834 50.0218 90.5583C50.0218 90.7155 49.9609 90.9076 49.8386 91.1349C49.734 91.3622 49.5945 91.6415 49.4199 91.9736C49.0364 92.7775 48.6871 93.5114 48.3731 94.1752C48.0766 94.8219 47.911 95.3547 47.8758 95.774C47.8587 95.8441 47.8497 95.9137 47.8497 95.9837C47.8497 96.0361 47.8497 96.0971 47.8497 96.1672C47.8497 96.8663 48.0766 97.2156 48.5301 97.2156C48.8094 97.2156 49.1672 97.0669 49.6031 96.77C50.0394 96.4555 50.4843 96.08 50.9378 95.643C51.3917 95.1888 51.8014 94.7604 52.1678 94.3587C52.5518 93.9393 52.8135 93.6248 52.953 93.4152C53.0053 93.3627 53.0576 93.3365 53.11 93.3365C53.1799 93.3365 53.2323 93.3627 53.267 93.4152C53.3194 93.4676 53.3284 93.5376 53.2932 93.6248C53.1362 93.9217 52.8659 94.2977 52.4819 94.7519C52.1155 95.1888 51.6968 95.6344 51.2257 96.0886C50.7722 96.5255 50.3273 96.9011 49.891 97.2156C49.6645 97.3905 49.3766 97.5387 49.0274 97.6611C48.6962 97.8008 48.3559 97.8708 48.0067 97.8708ZM61.7617 97.8708C61.4652 97.8708 61.1859 97.8008 60.9242 97.6611C60.6801 97.5215 60.4969 97.2594 60.3746 96.8749C60.3223 96.7176 60.2961 96.4993 60.2961 96.2196C60.2961 95.835 60.3485 95.4071 60.4531 94.9353C60.5578 94.4635 60.6715 94.0618 60.7934 93.7297C60.7063 93.7645 60.5407 93.9217 60.2961 94.2015C60.0696 94.4635 59.7817 94.7867 59.4325 95.1712C59.1013 95.5381 58.7259 95.9137 58.3071 96.2982C57.906 96.6652 57.4873 96.9711 57.0509 97.2156C56.6151 97.4601 56.1873 97.5825 55.7686 97.5825C55.4897 97.5825 55.1928 97.5039 54.8788 97.3466C54.5647 97.1717 54.312 96.9535 54.1198 96.6914C53.8581 96.3421 53.7273 95.9837 53.7273 95.6168C53.7273 95.145 53.8843 94.6556 54.1983 94.149C54.53 93.6425 54.9487 93.1531 55.4545 92.6813C55.9779 92.1919 56.5275 91.7553 57.1033 91.3708C57.6966 90.9691 58.2548 90.6369 58.7782 90.3748C59.3192 90.0951 59.7555 89.9116 60.0867 89.8244C60.436 89.7196 60.8285 89.6671 61.2644 89.6671C61.509 89.6671 61.7617 89.7019 62.0234 89.772C62.2851 89.8244 62.5035 89.9207 62.6776 90.0603C62.8175 90.1303 62.9308 90.2261 63.0179 90.3486C63.1054 90.4711 63.1487 90.6021 63.1487 90.7417C63.1487 90.8814 63.0878 90.9252 62.9655 90.8728C62.8261 90.6631 62.6343 90.5321 62.3898 90.4797C62.1633 90.4096 61.9277 90.3748 61.6832 90.3748C60.9856 90.3748 60.2176 90.6021 59.3801 91.0563C58.5427 91.5104 57.7927 92.0437 57.1295 92.6551C56.9201 92.8299 56.6322 93.1354 56.2658 93.5724C55.917 93.9918 55.5944 94.455 55.2975 94.9615C55.001 95.4681 54.8526 95.9313 54.8526 96.3507C54.8526 96.578 54.914 96.7786 55.0358 96.9535C55.1057 97.0759 55.219 97.1369 55.376 97.1369C55.6206 97.1369 55.9432 97.0059 56.3443 96.7438C56.7631 96.4817 57.1908 96.1672 57.6267 95.8002C58.063 95.4157 58.4556 95.0487 58.8044 94.6994C59.1708 94.3501 59.4325 94.0966 59.5895 93.9394C59.677 93.8521 59.8426 93.6773 60.0867 93.4152C60.3484 93.1354 60.6278 92.8385 60.9242 92.524C61.2211 92.2095 61.4828 91.9388 61.7093 91.7115C61.9539 91.4842 62.1109 91.3708 62.1804 91.3708C62.2679 91.3708 62.4074 91.397 62.5991 91.4494C62.8085 91.4842 62.9831 91.5457 63.1226 91.6329C63.2624 91.7201 63.2886 91.834 63.2011 91.9736C62.7476 92.6374 62.3812 93.3365 62.1019 94.0704C61.8402 94.7866 61.6832 95.3547 61.6308 95.774C61.6137 95.8441 61.6046 95.9137 61.6046 95.9837C61.6046 96.0361 61.6046 96.0971 61.6046 96.1672C61.6046 96.8663 61.8492 97.2156 62.3374 97.2156C62.5991 97.2156 62.9484 97.0583 63.3843 96.7438C63.8206 96.4293 64.2655 96.0538 64.719 95.6168C65.1729 95.1798 65.5826 94.7604 65.949 94.3587C66.333 93.9393 66.5947 93.6248 66.7341 93.4152C66.7865 93.3627 66.8388 93.3365 66.8911 93.3365C66.9611 93.3365 67.022 93.3713 67.0743 93.4414C67.1267 93.4938 67.1267 93.5638 67.0743 93.651C66.8826 93.9656 66.6033 94.3411 66.2369 94.7781C65.8705 95.215 65.4608 95.6516 65.0068 96.0886C64.5534 96.5255 64.1085 96.9011 63.6721 97.2156C63.4456 97.3905 63.1577 97.5387 62.8085 97.6611C62.4597 97.8008 62.1109 97.8708 61.7617 97.8708ZM67.0518 97.9495C66.9295 97.9495 66.8947 97.8885 66.9471 97.766C66.9994 97.6611 67.0951 97.4253 67.235 97.0583C67.3744 96.6738 67.5314 96.2196 67.706 95.6954C67.8978 95.1712 68.0896 94.6294 68.2818 94.0704C68.4736 93.5114 68.6482 92.9872 68.8052 92.4978C68.9794 92.0084 69.1193 91.6243 69.2239 91.3446C69.2587 91.2397 69.2934 91.0911 69.3286 90.899C69.3634 90.6893 69.4333 90.5059 69.538 90.3486C69.6598 90.1737 69.8606 90.0865 70.1399 90.0865C70.6633 90.0865 70.925 90.209 70.925 90.4534C70.925 90.5407 70.8813 90.6893 70.7942 90.899C70.5848 91.3708 70.3578 91.9126 70.1137 92.524C69.8692 93.1354 69.6512 93.712 69.4595 94.2539C69.2673 94.7957 69.1193 95.215 69.0146 95.5119C69.1887 95.2675 69.4681 94.9177 69.852 94.4635C70.2532 94.0094 70.6981 93.52 71.1867 92.9958C71.675 92.4716 72.1812 91.965 72.7046 91.4756C73.2452 90.9862 73.7424 90.5931 74.1964 90.2962C74.6674 89.9817 75.0686 89.8244 75.4002 89.8244C75.819 89.8244 76.0283 90.0517 76.0283 90.5059C76.0283 90.6631 75.9846 90.899 75.8975 91.2135C75.7405 91.6505 75.5397 92.0785 75.2955 92.4978C75.051 92.8995 74.833 93.3279 74.6413 93.7821C74.3096 94.6032 74.1179 95.2675 74.0655 95.774C74.0479 95.8441 74.0394 95.9137 74.0394 95.9837C74.0394 96.0361 74.0394 96.0971 74.0394 96.1672C74.0394 96.8663 74.2749 97.2156 74.746 97.2156C75.0077 97.2156 75.3565 97.0583 75.7928 96.7438C76.2287 96.4293 76.6736 96.0538 77.1275 95.6168C77.5986 95.1798 78.0173 94.7604 78.3837 94.3587C78.7501 93.9393 79.0028 93.6248 79.1426 93.4152C79.195 93.3627 79.2473 93.3365 79.2997 93.3365C79.3692 93.3365 79.4215 93.3627 79.4567 93.4152C79.509 93.4676 79.5176 93.5376 79.4829 93.6248C79.3258 93.9217 79.0551 94.2977 78.6716 94.7519C78.3052 95.1888 77.895 95.6344 77.4415 96.0886C76.9876 96.5255 76.5427 96.9011 76.1068 97.2156C75.8451 97.3905 75.5221 97.5477 75.1385 97.6874C74.7545 97.827 74.3705 97.8884 73.987 97.8708C73.4983 97.8184 73.1495 97.6526 72.9402 97.3728C72.7308 97.0759 72.6261 96.7262 72.6261 96.3244C72.6261 95.8527 72.7132 95.3547 72.8878 94.8305C73.0796 94.2887 73.289 93.7821 73.5159 93.3103C73.7425 92.8385 73.9256 92.4802 74.0655 92.2357C74.205 91.956 74.2749 91.7377 74.2749 91.5805C74.2749 91.4408 74.2135 91.3708 74.0917 91.3708C73.9694 91.3708 73.7862 91.4494 73.5421 91.6067C73.2975 91.7639 72.9664 92.0346 72.5476 92.4192C72.1636 92.7513 71.7535 93.1878 71.3176 93.7297C70.8813 94.2539 70.454 94.7957 70.0352 95.3547C69.6336 95.9137 69.2763 96.3945 68.9622 96.7962C68.6653 97.198 68.456 97.4338 68.3341 97.5039C68.2466 97.5563 68.0463 97.6435 67.7322 97.766C67.4353 97.8885 67.2088 97.9495 67.0518 97.9495ZM82.9451 98.0019C82.16 98.0019 81.4795 97.8184 80.9038 97.4515C80.328 97.0845 80.0401 96.5255 80.0401 95.774C80.0401 95.3723 80.1619 94.8829 80.4065 94.3063C80.5807 93.9046 80.9038 93.4414 81.3748 92.9172C81.8459 92.393 82.3955 91.8864 83.0236 91.397C83.6517 90.8904 84.2884 90.4797 84.934 90.1651C85.5793 89.833 86.1641 89.6671 86.6875 89.6671C86.8792 89.6671 87.0539 89.6934 87.2109 89.7458C87.5074 89.8506 87.7081 90.0165 87.8128 90.2438C87.9347 90.4711 87.996 90.707 87.996 90.9514C87.996 91.1787 87.9608 91.397 87.8913 91.6067C87.8214 91.8164 87.7343 91.9998 87.6296 92.1571C87.3156 92.6289 86.8617 93.0482 86.2688 93.4152C85.693 93.7821 85.0996 94.0704 84.4891 94.2801C83.8958 94.4898 83.4071 94.6122 83.0236 94.647H82.9712C82.7443 94.647 82.631 94.577 82.631 94.4373C82.631 94.3501 82.7005 94.3063 82.8404 94.3063C83.2591 94.2715 83.7825 94.079 84.4106 93.7297C85.0559 93.3627 85.6231 92.9872 86.1117 92.6026C86.3211 92.4278 86.5652 92.1833 86.8445 91.8688C87.141 91.5543 87.2894 91.2483 87.2894 90.9514C87.2894 90.6369 87.141 90.4797 86.8445 90.4797C86.6875 90.4797 86.5214 90.5144 86.3473 90.5845C86.1902 90.6545 86.0594 90.707 85.9547 90.7417C85.4484 90.9862 84.8903 91.3708 84.2798 91.895C83.6688 92.4016 83.1107 92.9782 82.6049 93.6248C82.1162 94.2539 81.776 94.8915 81.5842 95.5381C81.5319 95.6778 81.4967 95.8179 81.4795 95.9575C81.4619 96.08 81.4533 96.202 81.4533 96.3244C81.4533 96.7438 81.5842 97.0407 81.8459 97.2156C82.1248 97.3905 82.4564 97.4777 82.8404 97.4777C83.4161 97.4777 84.009 97.3552 84.62 97.1107C85.2305 96.8486 85.8239 96.5165 86.3996 96.1148C86.9754 95.713 87.4988 95.2846 87.9699 94.8305C88.4581 94.3587 88.8682 93.9046 89.1999 93.4676C89.2522 93.3975 89.3131 93.3627 89.3831 93.3627C89.4526 93.3451 89.4963 93.3541 89.5139 93.3889C89.5834 93.4066 89.6186 93.459 89.6186 93.5462C89.6186 93.6162 89.601 93.6858 89.5663 93.7559C89.0776 94.4373 88.4842 95.1012 87.7867 95.7478C87.1062 96.3945 86.3473 96.9359 85.5098 97.3728C84.6895 97.7922 83.8349 98.0019 82.9451 98.0019ZM100.979 99.7841C100.403 99.7841 99.8536 99.6879 99.3302 99.4958C98.8068 99.3038 98.379 98.9978 98.0478 98.5785C97.7162 98.1591 97.5506 97.6263 97.5506 96.9797C97.5506 96.8224 97.5853 96.6828 97.6553 96.5603C97.7424 96.4207 97.8209 96.3507 97.8908 96.3507C98.0302 96.3507 98.1002 96.5603 98.1002 96.9797C98.1002 97.5739 98.3529 98.0367 98.8591 98.3688C99.2603 98.6309 99.8013 98.762 100.482 98.762C101.162 98.762 101.869 98.6395 102.602 98.395C103.334 98.1505 104.032 97.8008 104.695 97.3466C105.48 96.8224 106.353 96.0709 107.312 95.0926C108.289 94.0966 109.301 93.0134 110.348 91.8426C109.511 91.7553 108.673 91.6591 107.836 91.5543C107.015 91.4494 106.187 91.397 105.349 91.397C104.791 91.397 104.233 91.458 103.675 91.5805C103.116 91.6853 102.61 91.895 102.157 92.2095C101.703 92.524 101.363 92.9872 101.136 93.5986C101.118 93.6687 101.092 93.7473 101.057 93.8345C101.04 93.9217 101.031 94.0094 101.031 94.0966C101.031 94.2715 101.075 94.4288 101.162 94.5684C101.197 94.6732 101.215 94.7342 101.215 94.7519C101.215 94.9091 101.145 94.9877 101.005 94.9877C100.883 94.9877 100.787 94.9267 100.717 94.8043C100.543 94.4898 100.456 94.088 100.456 93.5986C100.456 92.6727 100.621 91.965 100.953 91.4756C101.302 90.9862 101.764 90.6545 102.34 90.4797C102.916 90.3048 103.535 90.2176 104.198 90.2176C104.494 90.2176 104.8 90.2352 105.114 90.27C105.445 90.2876 105.768 90.3138 106.082 90.3486C106.85 90.4186 107.643 90.5407 108.464 90.7155C109.284 90.8728 110.104 91.0386 110.924 91.2135C111.831 90.1475 112.721 89.0729 113.593 87.9897C114.483 86.9065 115.311 85.8843 116.079 84.9232C116.847 83.9448 117.501 83.1061 118.042 82.407C118.059 82.3546 118.095 82.3198 118.147 82.3022C118.182 82.2674 118.208 82.2498 118.225 82.2498C118.417 82.1449 118.661 82.0577 118.958 81.9877C119.255 81.9005 119.455 81.8566 119.56 81.8566C119.734 81.8566 119.822 81.9529 119.822 82.1449C119.822 82.1973 119.778 82.2936 119.691 82.4332C118.818 83.9186 118.068 85.4388 117.44 86.9937C116.829 88.5487 116.289 90.1475 115.818 91.7901L115.765 91.9736C115.87 91.9736 115.975 91.9822 116.079 91.9998C116.201 91.9998 116.306 91.9998 116.394 91.9998C117.143 92.0522 117.781 91.9736 118.304 91.7639C118.688 91.6243 118.949 91.4232 119.089 91.1611C119.141 91.0911 119.185 91.0563 119.22 91.0563C119.307 91.0563 119.368 91.1087 119.403 91.2135C119.438 91.3007 119.429 91.3884 119.377 91.4756C119.185 91.8078 118.845 92.0522 118.356 92.2095C118.077 92.332 117.754 92.4106 117.388 92.4454C117.039 92.4802 116.672 92.4892 116.289 92.4716H116.132L115.818 92.4454H115.661C115.399 93.4066 115.216 94.4025 115.111 95.4333C115.094 95.5205 115.085 95.6082 115.085 95.6954C115.085 95.7655 115.085 95.8441 115.085 95.9313C115.085 96.9273 115.355 97.4253 115.896 97.4253C116.245 97.4253 116.655 97.268 117.126 96.9535C117.615 96.639 118.103 96.2544 118.592 95.8002C119.098 95.3461 119.551 94.9005 119.953 94.4635C120.354 94.0094 120.65 93.651 120.843 93.3889C120.877 93.3541 120.93 93.3365 121 93.3365C121.174 93.3365 121.226 93.4328 121.157 93.6248C121.121 93.6773 120.973 93.8869 120.712 94.2539C120.45 94.6032 120.092 95.0316 119.639 95.5381C119.185 96.0275 118.653 96.5165 118.042 97.0059C117.554 97.3905 117.065 97.6349 116.577 97.7398C116.106 97.8622 115.748 97.9232 115.504 97.9232C115.015 97.9232 114.622 97.705 114.326 97.268C114.047 96.8138 113.907 96.2372 113.907 95.5381C113.907 95.0316 113.96 94.5074 114.064 93.9656C114.169 93.4237 114.291 92.8824 114.431 92.3405C113.924 92.2881 113.41 92.2357 112.887 92.1833C112.363 92.1132 111.84 92.0437 111.316 91.9736C110.27 93.2493 109.223 94.4459 108.176 95.5644C107.146 96.6652 106.178 97.5563 105.271 98.2378C104.591 98.7272 103.884 99.1027 103.151 99.3648C102.435 99.6445 101.712 99.7841 100.979 99.7841ZM114.535 91.8426C114.849 90.6193 115.216 89.3965 115.635 88.1732C116.07 86.9327 116.498 85.8057 116.917 84.7921L117.048 84.4776C116.297 85.526 115.469 86.6444 114.562 87.8325C113.672 89.0205 112.764 90.1999 111.84 91.3708C112.293 91.458 112.747 91.5457 113.201 91.6329C113.654 91.7029 114.099 91.7725 114.535 91.8426ZM123.974 97.8708C123.242 97.8708 122.727 97.6874 122.43 97.3204C122.152 96.9535 122.012 96.4993 122.012 95.9575C122.012 95.4509 122.125 94.8129 122.352 94.0442C122.596 93.2755 122.91 92.4454 123.294 91.5543C123.678 90.6631 124.088 89.7806 124.524 88.9071C124.978 88.0159 125.423 87.2034 125.859 86.4696C126.313 85.7181 126.705 85.1152 127.036 84.6611C127.368 84.2241 127.726 83.7876 128.109 83.3506C128.493 82.9136 128.921 82.5467 129.392 82.2498C129.863 81.9529 130.395 81.8042 130.988 81.8042C131.39 81.8042 131.73 81.9176 132.009 82.1449C132.306 82.3546 132.454 82.6777 132.454 83.1147C132.454 83.2896 132.419 83.4902 132.349 83.7175C132.297 83.9448 132.201 84.1807 132.061 84.4252C130.997 86.2775 129.723 87.9897 128.24 89.5623C126.775 91.1349 125.222 92.5941 123.582 93.9394C123.512 94.2014 123.442 94.4373 123.373 94.647C123.32 94.8567 123.277 95.0225 123.242 95.145C123.225 95.2322 123.216 95.3285 123.216 95.4333C123.216 95.5205 123.216 95.6082 123.216 95.6954C123.216 96.1148 123.285 96.4817 123.425 96.7962C123.565 97.1107 123.8 97.268 124.131 97.268C124.446 97.268 124.83 97.1193 125.283 96.8224C125.754 96.5079 126.225 96.1324 126.696 95.6954C127.167 95.2413 127.595 94.8043 127.979 94.3849C128.363 93.9656 128.633 93.6425 128.79 93.4152C128.842 93.3627 128.895 93.3365 128.947 93.3365C129.017 93.3365 129.069 93.3713 129.104 93.4414C129.156 93.5114 129.156 93.5986 129.104 93.7035C128.93 94.0004 128.65 94.3673 128.266 94.8043C127.883 95.2413 127.455 95.6868 126.984 96.141C126.513 96.578 126.06 96.9621 125.623 97.2942C125.083 97.6788 124.533 97.8708 123.974 97.8708ZM123.948 92.891C124.612 92.4368 125.301 91.8511 126.016 91.1349C126.731 90.401 127.429 89.6061 128.109 88.7498C128.807 87.8935 129.436 87.0462 129.994 86.2075C130.569 85.3687 131.032 84.6086 131.381 83.9272C131.485 83.7351 131.555 83.5688 131.59 83.4292C131.642 83.2719 131.669 83.1323 131.669 83.0099C131.669 82.6777 131.529 82.5119 131.25 82.5119C131.006 82.5119 130.7 82.6429 130.334 82.905C129.392 83.6389 128.52 84.5824 127.717 85.7357C126.915 86.8713 126.199 88.0683 125.571 89.3264C124.943 90.5845 124.402 91.7725 123.948 92.891ZM137.567 97.8708C137.271 97.8708 136.991 97.8008 136.73 97.6611C136.485 97.5215 136.302 97.2594 136.18 96.8749C136.128 96.7176 136.101 96.4993 136.101 96.2196C136.101 95.835 136.154 95.4071 136.258 94.9353C136.363 94.4635 136.476 94.0618 136.599 93.7297C136.512 93.7645 136.346 93.9217 136.101 94.2015C135.874 94.4635 135.587 94.7867 135.238 95.1712C134.906 95.5381 134.531 95.9137 134.112 96.2982C133.711 96.6652 133.293 96.9711 132.856 97.2156C132.42 97.4601 131.993 97.5825 131.574 97.5825C131.295 97.5825 130.998 97.5039 130.684 97.3466C130.37 97.1717 130.117 96.9535 129.925 96.6914C129.663 96.3421 129.533 95.9837 129.533 95.6168C129.533 95.145 129.69 94.6556 130.004 94.149C130.335 93.6425 130.754 93.1531 131.26 92.6813C131.783 92.1919 132.333 91.7553 132.909 91.3708C133.502 90.9691 134.06 90.6369 134.584 90.3748C135.125 90.0951 135.56 89.9116 135.892 89.8244C136.241 89.7196 136.633 89.6671 137.07 89.6671C137.314 89.6671 137.567 89.7019 137.829 89.772C138.09 89.8244 138.308 89.9207 138.483 90.0603C138.622 90.1303 138.736 90.2261 138.823 90.3486C138.91 90.4711 138.954 90.6021 138.954 90.7417C138.954 90.8814 138.893 90.9252 138.771 90.8728C138.631 90.6631 138.439 90.5321 138.195 90.4797C137.968 90.4096 137.733 90.3748 137.488 90.3748C136.79 90.3748 136.023 90.6021 135.185 91.0563C134.348 91.5104 133.598 92.0437 132.935 92.6551C132.725 92.8299 132.438 93.1354 132.071 93.5724C131.722 93.9918 131.399 94.455 131.103 94.9615C130.806 95.4681 130.658 95.9313 130.658 96.3507C130.658 96.578 130.719 96.7786 130.841 96.9535C130.911 97.0759 131.024 97.1369 131.181 97.1369C131.425 97.1369 131.749 97.0059 132.15 96.7438C132.568 96.4817 132.996 96.1672 133.432 95.8002C133.868 95.4157 134.261 95.0487 134.61 94.6994C134.976 94.3501 135.238 94.0966 135.395 93.9394C135.482 93.8521 135.648 93.6773 135.892 93.4152C136.154 93.1354 136.433 92.8385 136.73 92.524C137.026 92.2095 137.288 91.9388 137.515 91.7115C137.759 91.4842 137.916 91.3708 137.986 91.3708C138.073 91.3708 138.213 91.397 138.404 91.4494C138.614 91.4842 138.788 91.5457 138.928 91.6329C139.067 91.7201 139.093 91.834 139.006 91.9736C138.553 92.6374 138.187 93.3365 137.907 94.0704C137.646 94.7866 137.488 95.3547 137.436 95.774C137.419 95.8441 137.41 95.9137 137.41 95.9837C137.41 96.0361 137.41 96.0971 137.41 96.1672C137.41 96.8663 137.654 97.2156 138.143 97.2156C138.404 97.2156 138.753 97.0583 139.19 96.7438C139.626 96.4293 140.071 96.0538 140.524 95.6168C140.978 95.1798 141.388 94.7604 141.754 94.3587C142.138 93.9393 142.4 93.6248 142.539 93.4152C142.592 93.3627 142.644 93.3365 142.696 93.3365C142.766 93.3365 142.827 93.3713 142.88 93.4414C142.932 93.4938 142.932 93.5638 142.88 93.651C142.688 93.9656 142.409 94.3411 142.042 94.7781C141.676 95.215 141.266 95.6516 140.812 96.0886C140.359 96.5255 139.914 96.9011 139.477 97.2156C139.25 97.3905 138.963 97.5387 138.614 97.6611C138.265 97.8008 137.916 97.8708 137.567 97.8708ZM142.857 97.9495C142.735 97.9495 142.7 97.8885 142.752 97.766C142.804 97.6611 142.9 97.4253 143.04 97.0583C143.18 96.6738 143.337 96.2196 143.511 95.6954C143.703 95.1712 143.895 94.6294 144.087 94.0704C144.279 93.5114 144.453 92.9872 144.61 92.4978C144.785 92.0084 144.924 91.6243 145.029 91.3446C145.064 91.2397 145.099 91.0911 145.133 90.899C145.169 90.6893 145.238 90.5059 145.343 90.3486C145.465 90.1737 145.666 90.0865 145.945 90.0865C146.468 90.0865 146.73 90.209 146.73 90.4534C146.73 90.5407 146.687 90.6893 146.599 90.899C146.39 91.3708 146.163 91.9126 145.919 92.524C145.675 93.1354 145.457 93.712 145.264 94.2539C145.073 94.7957 144.924 95.215 144.819 95.5119C144.994 95.2675 145.273 94.9177 145.657 94.4635C146.059 94.0094 146.503 93.52 146.992 92.9958C147.48 92.4716 147.986 91.965 148.51 91.4756C149.051 90.9862 149.548 90.5931 150.001 90.2962C150.472 89.9817 150.874 89.8244 151.205 89.8244C151.624 89.8244 151.833 90.0517 151.833 90.5059C151.833 90.6631 151.79 90.899 151.702 91.2135C151.545 91.6505 151.345 92.0785 151.1 92.4978C150.856 92.8995 150.638 93.3279 150.446 93.7821C150.115 94.6032 149.923 95.2675 149.87 95.774C149.853 95.8441 149.844 95.9137 149.844 95.9837C149.844 96.0361 149.844 96.0971 149.844 96.1672C149.844 96.8663 150.08 97.2156 150.551 97.2156C150.813 97.2156 151.162 97.0583 151.598 96.7438C152.034 96.4293 152.479 96.0538 152.932 95.6168C153.403 95.1798 153.822 94.7604 154.189 94.3587C154.555 93.9393 154.808 93.6248 154.948 93.4152C155 93.3627 155.052 93.3365 155.105 93.3365C155.174 93.3365 155.227 93.3627 155.262 93.4152C155.314 93.4676 155.323 93.5376 155.288 93.6248C155.131 93.9217 154.86 94.2977 154.476 94.7519C154.11 95.1888 153.7 95.6344 153.246 96.0886C152.793 96.5255 152.348 96.9011 151.912 97.2156C151.65 97.3905 151.327 97.5477 150.943 97.6874C150.56 97.827 150.176 97.8884 149.792 97.8708C149.304 97.8184 148.954 97.6526 148.745 97.3728C148.536 97.0759 148.431 96.7262 148.431 96.3244C148.431 95.8527 148.519 95.3547 148.693 94.8305C148.885 94.2887 149.094 93.7821 149.321 93.3103C149.548 92.8385 149.731 92.4802 149.87 92.2357C150.01 91.956 150.08 91.7377 150.08 91.5805C150.08 91.4408 150.019 91.3708 149.897 91.3708C149.775 91.3708 149.592 91.4494 149.347 91.6067C149.103 91.7639 148.771 92.0346 148.352 92.4192C147.969 92.7513 147.559 93.1878 147.122 93.7297C146.687 94.2539 146.259 94.7957 145.84 95.3547C145.439 95.9137 145.081 96.3945 144.767 96.7962C144.471 97.198 144.261 97.4338 144.139 97.5039C144.052 97.5563 143.851 97.6435 143.537 97.766C143.241 97.8885 143.014 97.9495 142.857 97.9495ZM158.41 97.897C157.922 97.897 157.494 97.7836 157.127 97.5563C156.517 97.1894 156.211 96.5255 156.211 95.5644C156.211 95.1626 156.281 94.6994 156.421 94.1752C156.543 93.7383 156.761 93.2665 157.075 92.7599C157.389 92.2357 157.755 91.7377 158.174 91.2659C158.611 90.7942 159.082 90.4096 159.587 90.1127C160.094 89.8158 160.6 89.6671 161.105 89.6671C161.315 89.6671 161.498 89.6934 161.655 89.7458C161.864 89.8158 162.039 89.9469 162.178 90.1389C162.335 90.3138 162.414 90.5407 162.414 90.8204C162.414 91.1173 162.335 91.2836 162.178 91.3184C162.039 91.3532 161.969 91.3184 161.969 91.2135C161.969 91.1787 161.969 91.1435 161.969 91.1087C161.987 91.0739 161.995 91.0477 161.995 91.0301C161.995 90.8904 161.952 90.768 161.864 90.6631C161.795 90.5407 161.655 90.4797 161.446 90.4797C161.167 90.4797 160.817 90.6283 160.399 90.9252C159.998 91.2221 159.579 91.6243 159.143 92.1309C158.724 92.6203 158.349 93.1616 158.017 93.7559C157.703 94.3501 157.494 94.9439 157.389 95.5381C157.372 95.6254 157.354 95.713 157.337 95.8002C157.337 95.8703 157.337 95.9489 157.337 96.0361C157.337 96.4379 157.424 96.7786 157.598 97.0583C157.791 97.3204 158.087 97.4515 158.488 97.4515C158.977 97.4515 159.448 97.268 159.901 96.9011C160.355 96.5165 160.757 96.0623 161.105 95.5381C161.472 95.014 161.742 94.5508 161.917 94.149C162.056 93.8345 162.152 93.5638 162.204 93.3365C162.257 93.1092 162.283 92.9172 162.283 92.7599C162.283 92.6203 162.266 92.4978 162.231 92.393C162.214 92.2881 162.187 92.2009 162.152 92.1309C162.117 92.026 162.1 91.9474 162.1 91.895C162.1 91.7553 162.152 91.6415 162.257 91.5543C162.379 91.467 162.501 91.4232 162.623 91.4232C162.728 91.4232 162.842 91.458 162.963 91.528C163.103 91.5628 163.295 91.5891 163.539 91.6067C163.784 91.6243 164.045 91.6329 164.324 91.6329C164.621 91.6329 164.918 91.6243 165.214 91.6067C165.528 91.5891 165.799 91.5543 166.025 91.5018C166.061 91.4842 166.113 91.4756 166.182 91.4756C166.305 91.4756 166.366 91.5104 166.366 91.5805C166.366 91.6505 166.305 91.7115 166.182 91.7639C165.572 92.0437 165.022 92.1919 164.534 92.2095C164.063 92.2271 163.653 92.2357 163.304 92.2357C163.339 92.6727 163.243 93.1445 163.016 93.651C162.789 94.1404 162.554 94.577 162.309 94.9615C162.013 95.3985 161.673 95.8441 161.289 96.2982C160.905 96.7524 160.477 97.1369 160.006 97.4515C159.535 97.7484 159.003 97.897 158.41 97.897Z" fill="#56BBFC"/>
<path d="M38.5729 107.115C38.5729 107.603 38.4132 107.996 38.0937 108.294C37.7742 108.593 37.295 108.742 36.6561 108.742H35.5109V111.166H34.9424V105.48H36.6561C37.2896 105.48 37.7661 105.629 38.0856 105.927C38.4105 106.226 38.5729 106.621 38.5729 107.115ZM36.6561 108.254C37.5441 108.254 37.9881 107.874 37.9881 107.115C37.9881 106.735 37.8825 106.448 37.6714 106.253C37.4602 106.058 37.1218 105.96 36.6561 105.96H35.5109V108.254H36.6561ZM43.8965 111.231C43.3875 111.231 42.9706 111.114 42.6457 110.881C42.3262 110.642 42.1475 110.32 42.1096 109.913H42.6944C42.7215 110.163 42.8379 110.366 43.0437 110.523C43.2548 110.675 43.5364 110.751 43.8883 110.751C44.197 110.751 44.4379 110.678 44.6112 110.531C44.7898 110.385 44.8791 110.203 44.8791 109.986C44.8791 109.834 44.8304 109.71 44.7329 109.612C44.6356 109.515 44.511 109.439 44.3594 109.384C44.2132 109.325 44.0129 109.262 43.7584 109.197C43.4281 109.111 43.1601 109.024 42.9543 108.937C42.7486 108.85 42.5726 108.723 42.4264 108.555C42.2856 108.381 42.2152 108.151 42.2152 107.863C42.2152 107.646 42.2802 107.446 42.4102 107.261C42.5401 107.077 42.7242 106.931 42.9624 106.822C43.2007 106.714 43.4714 106.659 43.7746 106.659C44.2511 106.659 44.6356 106.781 44.9279 107.025C45.2203 107.264 45.3773 107.595 45.3989 108.018H44.8304C44.8142 107.758 44.7113 107.549 44.5219 107.392C44.3378 107.229 44.0833 107.147 43.7584 107.147C43.4714 107.147 43.2386 107.215 43.0599 107.351C42.8812 107.486 42.7919 107.655 42.7919 107.855C42.7919 108.029 42.8433 108.172 42.9462 108.286C43.0545 108.395 43.1872 108.481 43.3442 108.547C43.5012 108.606 43.7124 108.674 43.9777 108.75C44.2972 108.837 44.5516 108.921 44.7411 109.002C44.9306 109.083 45.093 109.203 45.2284 109.36C45.3637 109.517 45.4341 109.726 45.4396 109.986C45.4396 110.225 45.3746 110.439 45.2446 110.629C45.1147 110.813 44.9333 110.96 44.7005 111.068C44.4677 111.177 44.1997 111.231 43.8965 111.231ZM49.6368 105.887C49.5231 105.887 49.4256 105.846 49.3444 105.765C49.2632 105.683 49.2226 105.583 49.2226 105.464C49.2226 105.344 49.2632 105.247 49.3444 105.171C49.4256 105.09 49.5231 105.049 49.6368 105.049C49.7505 105.049 49.848 105.09 49.9292 105.171C50.0104 105.247 50.051 105.344 50.051 105.464C50.051 105.583 50.0104 105.683 49.9292 105.765C49.848 105.846 49.7505 105.887 49.6368 105.887ZM49.9211 106.725V111.166H49.3525V106.725H49.9211ZM53.7912 108.945C53.7912 108.484 53.8832 108.083 54.0673 107.741C54.2514 107.394 54.5059 107.129 54.8308 106.944C55.1557 106.754 55.5266 106.659 55.9435 106.659C56.4904 106.659 56.9398 106.795 57.2917 107.066C57.6491 107.337 57.8792 107.706 57.9821 108.172H57.373C57.2972 107.852 57.132 107.603 56.8775 107.424C56.6284 107.24 56.3171 107.147 55.9435 107.147C55.6457 107.147 55.3777 107.215 55.1394 107.351C54.9012 107.486 54.7117 107.69 54.5709 107.961C54.4355 108.227 54.3678 108.555 54.3678 108.945C54.3678 109.336 54.4355 109.666 54.5709 109.937C54.7117 110.209 54.9012 110.412 55.1394 110.548C55.3777 110.683 55.6457 110.751 55.9435 110.751C56.3171 110.751 56.6284 110.661 56.8775 110.482C57.132 110.298 57.2972 110.043 57.373 109.718H57.9821C57.8792 110.173 57.6491 110.539 57.2917 110.816C56.9344 111.093 56.485 111.231 55.9435 111.231C55.5266 111.231 55.1557 111.139 54.8308 110.954C54.5059 110.764 54.2514 110.499 54.0673 110.157C53.8832 109.81 53.7912 109.406 53.7912 108.945ZM63.8159 111.231C63.399 111.231 63.0227 111.139 62.687 110.954C62.3567 110.764 62.0941 110.499 61.8991 110.157C61.7096 109.81 61.6149 109.406 61.6149 108.945C61.6149 108.484 61.7123 108.083 61.9073 107.741C62.1022 107.394 62.3675 107.129 62.7032 106.944C63.0389 106.754 63.4152 106.659 63.8322 106.659C64.2491 106.659 64.6254 106.754 64.9611 106.944C65.3022 107.129 65.5676 107.394 65.7571 107.741C65.952 108.083 66.0495 108.484 66.0495 108.945C66.0495 109.401 65.952 109.802 65.7571 110.149C65.5621 110.496 65.2941 110.764 64.953 110.954C64.6119 111.139 64.2328 111.231 63.8159 111.231ZM63.8159 110.735C64.1083 110.735 64.379 110.67 64.6281 110.539C64.8772 110.404 65.0775 110.203 65.2291 109.937C65.3862 109.666 65.4647 109.336 65.4647 108.945C65.4647 108.555 65.3889 108.227 65.2373 107.961C65.0857 107.69 64.8853 107.489 64.6362 107.359C64.3872 107.223 64.1164 107.156 63.824 107.156C63.5317 107.156 63.2609 107.223 63.0118 107.359C62.7628 107.489 62.5624 107.69 62.4108 107.961C62.2646 108.227 62.1915 108.555 62.1915 108.945C62.1915 109.336 62.2646 109.666 62.4108 109.937C62.5624 110.203 62.7601 110.404 63.0037 110.539C63.2528 110.67 63.5235 110.735 63.8159 110.735ZM64.5956 105.374L62.9306 106.342V105.903L64.5956 104.862V105.374ZM70.4971 105.147V111.166H69.9286V105.147H70.4971ZM76.5683 111.231C76.1514 111.231 75.775 111.139 75.4393 110.954C75.109 110.764 74.8464 110.499 74.6515 110.157C74.462 109.81 74.3672 109.406 74.3672 108.945C74.3672 108.484 74.4647 108.083 74.6596 107.741C74.8546 107.394 75.1199 107.129 75.4556 106.944C75.7913 106.754 76.1676 106.659 76.5845 106.659C77.0015 106.659 77.3778 106.754 77.7135 106.944C78.0546 107.129 78.3199 107.394 78.5094 107.741C78.7044 108.083 78.8018 108.484 78.8018 108.945C78.8018 109.401 78.7044 109.802 78.5094 110.149C78.3145 110.496 78.0465 110.764 77.7054 110.954C77.3642 111.139 76.9852 111.231 76.5683 111.231ZM76.5683 110.735C76.8607 110.735 77.1314 110.67 77.3805 110.539C77.6296 110.404 77.8299 110.203 77.9815 109.937C78.1385 109.666 78.217 109.336 78.217 108.945C78.217 108.555 78.1412 108.227 77.9896 107.961C77.838 107.69 77.6377 107.489 77.3886 107.359C77.1395 107.223 76.8688 107.156 76.5764 107.156C76.284 107.156 76.0133 107.223 75.7642 107.359C75.5151 107.489 75.3148 107.69 75.1632 107.961C75.017 108.227 74.9439 108.555 74.9439 108.945C74.9439 109.336 75.017 109.666 75.1632 109.937C75.3148 110.203 75.5124 110.404 75.7561 110.539C76.0052 110.67 76.2759 110.735 76.5683 110.735ZM84.5409 106.659C84.9578 106.659 85.3206 106.757 85.6292 106.952C85.9379 107.147 86.1599 107.394 86.2952 107.692V106.725H86.8638V111.28C86.8638 111.686 86.7744 112.047 86.5957 112.361C86.4225 112.676 86.1788 112.917 85.8648 113.085C85.5507 113.259 85.1934 113.346 84.7927 113.346C84.2241 113.346 83.7503 113.21 83.3713 112.939C82.9977 112.668 82.7649 112.299 82.6728 111.833H83.2332C83.3307 112.142 83.5148 112.389 83.7855 112.573C84.0617 112.757 84.3974 112.849 84.7927 112.849C85.0796 112.849 85.3368 112.787 85.5642 112.662C85.7917 112.543 85.9703 112.364 86.1003 112.126C86.2303 111.887 86.2952 111.605 86.2952 111.28V110.182C86.1544 110.485 85.9297 110.737 85.6211 110.938C85.3179 111.133 84.9578 111.231 84.5409 111.231C84.1348 111.231 83.7693 111.136 83.4444 110.946C83.125 110.756 82.8732 110.488 82.6891 110.141C82.5104 109.794 82.4211 109.392 82.4211 108.937C82.4211 108.481 82.5104 108.083 82.6891 107.741C82.8732 107.394 83.125 107.129 83.4444 106.944C83.7693 106.754 84.1348 106.659 84.5409 106.659ZM86.2952 108.945C86.2952 108.587 86.2221 108.273 86.0759 108.002C85.9297 107.73 85.7294 107.522 85.4749 107.375C85.2258 107.229 84.9497 107.156 84.6465 107.156C84.3324 107.156 84.0509 107.226 83.8018 107.367C83.5527 107.508 83.3551 107.714 83.2089 107.985C83.0681 108.251 82.9977 108.568 82.9977 108.937C82.9977 109.3 83.0681 109.62 83.2089 109.897C83.3551 110.168 83.5527 110.377 83.8018 110.523C84.0509 110.664 84.3324 110.735 84.6465 110.735C84.9497 110.735 85.2258 110.661 85.4749 110.515C85.7294 110.369 85.9297 110.16 86.0759 109.889C86.2221 109.618 86.2952 109.303 86.2952 108.945ZM90.7447 108.937C90.7447 108.481 90.834 108.083 91.0127 107.741C91.1968 107.394 91.4486 107.129 91.7681 106.944C92.0929 106.754 92.4584 106.659 92.8645 106.659C93.2869 106.659 93.6497 106.757 93.9529 106.952C94.2615 107.147 94.4835 107.397 94.6189 107.701V106.725H95.1874V111.166H94.6189V110.182C94.4781 110.485 94.2534 110.737 93.9447 110.938C93.6415 111.133 93.2787 111.231 92.8564 111.231C92.4557 111.231 92.0929 111.136 91.7681 110.946C91.4486 110.756 91.1968 110.488 91.0127 110.141C90.834 109.794 90.7447 109.392 90.7447 108.937ZM94.6189 108.945C94.6189 108.587 94.5458 108.273 94.3996 108.002C94.2534 107.73 94.053 107.522 93.7986 107.375C93.5495 107.229 93.2733 107.156 92.9701 107.156C92.6561 107.156 92.3745 107.226 92.1254 107.367C91.8764 107.508 91.6787 107.714 91.5325 107.985C91.3918 108.251 91.3214 108.568 91.3214 108.937C91.3214 109.3 91.3918 109.62 91.5325 109.897C91.6787 110.168 91.8764 110.377 92.1254 110.523C92.3745 110.664 92.6561 110.735 92.9701 110.735C93.2733 110.735 93.5495 110.661 93.7986 110.515C94.053 110.369 94.2534 110.16 94.3996 109.889C94.5458 109.618 94.6189 109.303 94.6189 108.945ZM104.14 108.319C104.14 107.76 104.261 107.261 104.505 106.822C104.749 106.377 105.082 106.033 105.504 105.789C105.926 105.54 106.398 105.415 106.917 105.415C107.551 105.415 108.092 105.567 108.542 105.87C108.997 106.169 109.327 106.592 109.533 107.139H108.867C108.704 106.754 108.455 106.453 108.119 106.236C107.789 106.02 107.388 105.911 106.917 105.911C106.5 105.911 106.124 106.009 105.788 106.204C105.458 106.399 105.198 106.681 105.009 107.05C104.819 107.413 104.724 107.836 104.724 108.319C104.724 108.801 104.819 109.224 105.009 109.588C105.198 109.951 105.458 110.23 105.788 110.426C106.124 110.621 106.5 110.718 106.917 110.718C107.388 110.718 107.789 110.613 108.119 110.401C108.455 110.184 108.704 109.886 108.867 109.506H109.533C109.327 110.049 108.997 110.469 108.542 110.767C108.087 111.065 107.545 111.215 106.917 111.215C106.398 111.215 105.926 111.093 105.504 110.849C105.082 110.599 104.749 110.255 104.505 109.815C104.261 109.376 104.14 108.877 104.14 108.319ZM114.076 105.147V111.166H113.508V105.147H114.076ZM118.775 106.725V111.166H118.207V106.725H118.775ZM119.238 105.415L117.573 106.383V105.944L119.238 104.902V105.415ZM124.985 106.643C125.515 106.643 125.948 106.809 126.284 107.139C126.62 107.465 126.788 107.939 126.788 108.563V111.166H126.227V108.628C126.227 108.145 126.105 107.777 125.862 107.522C125.624 107.267 125.296 107.139 124.879 107.139C124.451 107.139 124.11 107.275 123.856 107.546C123.601 107.817 123.474 108.216 123.474 108.742V111.166H122.905V106.725H123.474V107.481C123.615 107.21 123.818 107.004 124.083 106.863C124.348 106.716 124.649 106.643 124.985 106.643ZM131.172 105.887C131.058 105.887 130.961 105.846 130.88 105.765C130.799 105.683 130.758 105.583 130.758 105.464C130.758 105.344 130.799 105.247 130.88 105.171C130.961 105.09 131.058 105.049 131.172 105.049C131.286 105.049 131.383 105.09 131.465 105.171C131.546 105.247 131.586 105.344 131.586 105.464C131.586 105.583 131.546 105.683 131.465 105.765C131.383 105.846 131.286 105.887 131.172 105.887ZM131.456 106.725V111.166H130.888V106.725H131.456ZM135.327 108.945C135.327 108.484 135.419 108.083 135.603 107.741C135.787 107.394 136.041 107.129 136.366 106.944C136.691 106.754 137.062 106.659 137.479 106.659C138.026 106.659 138.475 106.795 138.827 107.066C139.184 107.337 139.415 107.706 139.517 108.172H138.908C138.833 107.852 138.667 107.603 138.413 107.424C138.164 107.24 137.852 107.147 137.479 107.147C137.181 107.147 136.913 107.215 136.675 107.351C136.437 107.486 136.247 107.69 136.106 107.961C135.971 108.227 135.903 108.555 135.903 108.945C135.903 109.336 135.971 109.666 136.106 109.937C136.247 110.209 136.437 110.412 136.675 110.548C136.913 110.683 137.181 110.751 137.479 110.751C137.852 110.751 138.164 110.661 138.413 110.482C138.667 110.298 138.833 110.043 138.908 109.718H139.517C139.415 110.173 139.184 110.539 138.827 110.816C138.47 111.093 138.02 111.231 137.479 111.231C137.062 111.231 136.691 111.139 136.366 110.954C136.041 110.764 135.787 110.499 135.603 110.157C135.419 109.81 135.327 109.406 135.327 108.945ZM143.15 108.937C143.15 108.481 143.24 108.083 143.418 107.741C143.602 107.394 143.854 107.129 144.174 106.944C144.498 106.754 144.864 106.659 145.27 106.659C145.692 106.659 146.055 106.757 146.358 106.952C146.667 107.147 146.889 107.397 147.024 107.701V106.725H147.593V111.166H147.024V110.182C146.884 110.485 146.659 110.737 146.35 110.938C146.047 111.133 145.684 111.231 145.262 111.231C144.861 111.231 144.498 111.136 144.174 110.946C143.854 110.756 143.602 110.488 143.418 110.141C143.24 109.794 143.15 109.392 143.15 108.937ZM147.024 108.945C147.024 108.587 146.951 108.273 146.805 108.002C146.659 107.73 146.459 107.522 146.204 107.375C145.955 107.229 145.679 107.156 145.376 107.156C145.062 107.156 144.78 107.226 144.531 107.367C144.282 107.508 144.084 107.714 143.938 107.985C143.797 108.251 143.727 108.568 143.727 108.937C143.727 109.3 143.797 109.62 143.938 109.897C144.084 110.168 144.282 110.377 144.531 110.523C144.78 110.664 145.062 110.735 145.376 110.735C145.679 110.735 145.955 110.661 146.204 110.515C146.459 110.369 146.659 110.16 146.805 109.889C146.951 109.618 147.024 109.303 147.024 108.945Z" fill="#56BBFC"/>
</svg>
