<svg width="346" height="346" viewBox="0 0 346 346" fill="none" xmlns="http://www.w3.org/2000/svg">
<path d="M0 175C1e-06 173.611 1.01328e-06 172.221 0.287584 170.705C4.29717 167.638 7.93242 164.58 11.7566 161.779C26.1828 151.214 41.8829 143.343 59.5868 140.023C67.835 138.477 76.1631 137.356 84.2213 136.079C56.7199 106.948 49.8166 70.8596 50.5873 50.0152C66.4792 49.63 81.6716 53.3727 96.143 59.2432C110.758 65.1721 124.118 73.5916 136.003 85.2851C136.003 83.6062 136.017 82.8037 136 82.0018C135.966 80.3381 135.915 78.6748 136.056 76.6466C136.877 71.8456 137.512 67.4092 138.493 62.7816C139.014 61.1324 139.015 59.6285 139.389 58.2237C144.808 37.8651 154.601 19.8511 168.443 3.98655C169.325 2.9749 169.497 1.34324 170 3.71851e-09C171.389 -9.96282e-07 172.779 -9.53674e-07 174.295 0.287595C177.362 4.29746 180.421 7.93264 183.222 11.7575C193.786 26.1862 201.661 41.8858 204.977 59.5932C206.522 67.842 207.645 76.1699 208.941 84.3511C232.593 61.2257 261.963 51.6015 295.038 49.8492C293.822 83.7129 281.779 112.333 259.092 136.652C264.746 137.149 269.89 137.192 274.871 138.113C295.179 141.867 313.98 149.347 330.917 161.35C335.782 164.797 340.964 167.796 346 171C346 171.75 346 172.5 345.71 173.338C341.937 176.126 338.481 178.861 334.968 181.519C321.125 191.991 306.007 199.95 289.053 203.979C279.596 206.227 269.997 207.879 260.459 209.801C281.951 234.039 292.022 262.848 294.989 294.968C261.761 293.27 233.149 281.481 208.776 260.462C207.342 269.159 206.546 277.666 204.462 285.846C200.28 302.264 193.367 317.528 183.339 331.328C179.937 336.009 177.097 341.098 174 346C173.25 346 172.5 346 171.662 345.71C170.557 343.948 169.689 342.342 168.501 341.025C157.375 328.693 149.099 314.572 144.128 298.851C140.185 286.383 137.771 273.432 134.528 260.076C132.764 262.314 130.85 264.742 128.947 267.116C128.958 267.061 129.071 267.064 128.829 266.742C127.432 267.275 126.277 268.131 124.981 269.29C123.555 270.44 122.272 271.286 120.584 272.082C119.806 272.713 119.432 273.394 119.05 274.019C119.042 273.963 119.154 273.943 118.847 273.635C97.4644 285.727 74.7725 292.927 49.7778 294.888C51.6194 262.336 62.5944 233.929 83.8708 209.348C80.3282 208.908 77.1704 208.517 73.5726 208.076C69.7461 207.635 66.3596 207.244 62.7814 206.507C61.1317 205.987 59.6274 205.987 58.2228 205.613C37.8673 200.19 19.852 190.402 3.98916 176.559C2.9768 175.676 1.34411 175.503 0 175ZM197.981 97.4778C200.743 93.5091 204.433 90.4578 204.052 84.4754C202.797 64.7417 198.463 45.9273 188.698 28.6848C184.242 20.8175 178.681 13.5758 173.725 6.203C172.247 6.9397 171.868 7.01328 171.672 7.24278C151.701 30.5659 139.993 57.0534 140.903 88.2801C140.955 90.0745 141.855 92.1519 143.014 93.5588C155.498 108.707 164.062 125.816 169.149 144.731C170.016 147.959 171.148 151.116 172.505 155.404C176.86 133.609 184.944 114.82 197.981 97.4778ZM125.44 163.111C114.812 156.662 104.232 150.13 93.5146 143.831C91.2356 142.492 88.4459 141.211 85.9101 141.246C65.6119 141.528 46.3551 146.33 28.6579 156.32C20.7915 160.761 13.5618 166.33 6.18685 171.29C6.93633 172.762 7.01386 173.138 7.24466 173.335C29.7112 192.528 55.147 204.306 85.2238 204.052C87.9007 204.03 90.8164 202.547 93.1855 201.051C102.434 195.214 111.032 188.131 120.775 183.355C130.888 178.4 142.046 175.578 151.74 172.177C143.996 169.538 135.06 166.492 125.44 163.111ZM337.989 172.574C335.987 170.856 334.099 168.979 331.965 167.445C310.56 152.048 286.948 142.538 260.405 141.299C257.165 141.148 253.004 141.59 250.705 143.492C234.317 157.046 215.306 165.055 195.212 170.993C194.097 171.323 193.026 171.797 191.25 172.46C214.41 177.252 234.269 186.705 251.446 201.761C253.099 203.21 255.864 204.121 258.088 204.076C288.366 203.454 314.769 192.627 337.989 172.574ZM177.157 209.225C175.644 203.451 174.132 197.678 172.363 190.924C167.717 213.69 158.616 233.247 144.025 250.044C141.499 252.952 140.666 255.803 140.777 259.479C141.518 283.953 149.536 306.005 162.853 326.288C165.618 330.5 168.833 334.416 172.186 338.935C174.44 336.032 176.131 333.999 177.665 331.854C192.997 310.418 202.474 286.814 203.723 260.28C203.845 257.7 203.362 254.341 201.786 252.553C190.725 239.995 182.706 225.794 177.157 209.225ZM213.861 248.667C230.096 260.445 248.251 266.942 268.264 268.854C263.419 210.195 217.487 176.141 175.171 175.616C177.8 205.193 189.009 230.111 213.861 248.667ZM77.7258 81.9601C80.2357 105.983 89.3204 126.99 107.196 143.521C124.954 159.942 146.264 168.546 170.424 170.855C164.308 107.805 115.073 77.6019 77.2158 77.7192C77.3256 78.8676 77.4335 79.996 77.7258 81.9601ZM256.892 119.322C263.759 106.16 268.326 92.385 268.816 77.1288C241.905 79.4654 218.883 88.6436 201.172 108.603C185.607 126.143 177.35 146.95 175.146 170.391C209.851 167.785 239.636 149.212 256.892 119.322ZM122.307 189.77C93.5931 208.161 80.1034 235.367 75.9493 268.53C108.148 265.102 134.951 250.5 151.11 227.92C162.362 212.196 168.766 194.799 169.922 175.156C152.72 176.564 137.172 180.838 122.307 189.77Z" fill="#60BBF6"/>
<path d="M128.829 266.742C127.983 267.708 126.894 268.351 125.464 268.991C126.277 268.131 127.432 267.275 128.829 266.742Z" fill="black"/>
<path d="M120.584 272.082C120.53 272.724 120.071 273.316 119.335 273.991C119.432 273.394 119.806 272.713 120.584 272.082Z" fill="black"/>
<path d="M287.084 232.31C292.564 232.297 298.138 232.911 303.704 232.845C306.386 232.813 309.053 231.498 312.202 230.634C307.386 219.049 299.39 211.984 287.296 209.02C291.933 209.284 297.188 208.803 301.881 210.206C315.455 214.263 324.398 223.677 330.004 237.019C314.788 243.32 300.653 241.469 287.084 232.31Z" fill="#5FBBF6"/>
<path d="M211.073 294.566C217.809 306.79 222.182 311.235 231.943 314.93C235.761 306.198 235.963 297.538 232.172 288.79C231.127 286.378 229.808 284.084 228.777 281.381C240.306 291.122 244.961 303.559 242.097 318.64C241.406 322.284 240.817 325.946 240.102 330.056C223.441 323.579 213.856 312.062 211.073 294.566Z" fill="#60BBF6"/>
<path d="M226.913 278.726C226.385 278.859 225.786 278.664 225.068 278.142C225.58 278.009 226.211 278.204 226.913 278.726Z" fill="#60BBF6"/>
<path d="M286.022 231.354C286.284 231.212 286.632 231.32 287.008 231.715C286.727 231.869 286.418 231.736 286.022 231.354Z" fill="#5FBBF6"/>
<path d="M227.948 279.766C227.609 279.922 227.246 279.794 226.917 279.344C227.275 279.175 227.599 279.328 227.948 279.766Z" fill="#60BBF6"/>
<path d="M228.946 280.768C228.593 280.931 228.22 280.809 227.898 280.357C228.274 280.179 228.599 280.331 228.946 280.768Z" fill="#60BBF6"/>
<path d="M109.696 289.106C110.339 295.276 110.577 301.552 110.976 307.817C111.044 308.871 111.811 309.881 112.356 311.148C125.297 305.641 133.026 296.573 134.61 282.26C137.634 291.502 134.631 300.449 130.509 308.576C125.525 318.401 117.151 325.22 106.245 328.749C100.804 315.109 101.999 301.934 109.696 289.106Z" fill="#60BBF6"/>
<path d="M44.659 212.015C43.6451 213.535 42.3304 215.137 40.8294 216.54C35.9748 221.076 32.5534 226.42 30.9094 233.572C39.8819 236.167 48.2741 235.443 56.333 231.04C58.7992 229.693 61.1026 228.047 63.8753 226.661C60.2565 234.2 53.6857 238.478 46.0966 241.418C36.9592 244.959 27.6375 244.777 18.2474 242.842C18.4683 231.68 31.3203 215.483 44.659 212.015Z" fill="#60BBF6"/>
<path d="M67.2937 222.917C67.1595 222.377 67.3575 221.752 67.8895 221.001C68.0243 221.528 67.8251 222.179 67.2937 222.917Z" fill="#60BBF6"/>
<path d="M110.615 287.076C110.822 287.587 110.743 288.227 110.339 288.953C110.119 288.428 110.224 287.817 110.615 287.076Z" fill="#60BBF6"/>
<path d="M66.1119 225.134C65.934 224.584 66.0888 223.875 66.62 223.066C66.8124 223.635 66.6285 224.306 66.1119 225.134Z" fill="#60BBF6"/>
<path d="M47.0257 211.12C46.8163 211.576 46.2394 211.942 45.3378 212.181C45.5614 211.712 46.1099 211.371 47.0257 211.12Z" fill="#60BBF6"/>
<path d="M234.187 55.1085C234.255 48.9131 234.846 42.559 234.989 36.1948C235.07 32.6082 232.825 32.3043 229.908 33.5436C220.557 37.5162 214.022 44.1146 210.449 54.0546C209.925 37.5903 218.335 26.0736 232.402 18.3092C242.437 12.7698 243.817 13.9262 244.05 25.6441C244.268 36.5864 242.014 46.5805 234.187 55.1085Z" fill="#5FBBF6"/>
<path d="M301.356 129.003C304.651 124.381 308.422 119.819 311.962 115.085C313.011 113.682 313.413 111.794 314.346 109.567C302.109 105.719 291.52 107.986 281.382 115.135C284.211 108.108 290.351 104.309 296.735 101.161C306.082 96.5511 316.079 95.9793 326.22 98.1659C327.235 98.3848 328.128 99.1676 329.311 99.8164C324.546 114.012 316.186 124.351 301.356 129.003Z" fill="#60BBF6"/>
<path d="M299.422 129.926C299.559 129.514 300.001 129.18 300.727 128.907C300.583 129.313 300.155 129.658 299.422 129.926Z" fill="#60BBF6"/>
<path d="M279.726 116.084C279.857 116.608 279.663 117.203 279.147 117.918C279.017 117.411 279.209 116.783 279.726 116.084Z" fill="#60BBF6"/>
<path d="M280.763 115.048C280.917 115.383 280.786 115.744 280.337 116.076C280.172 115.724 280.325 115.4 280.763 115.048Z" fill="#60BBF6"/>
<path d="M56.0805 110.773C48.9485 109.754 41.6703 107.405 34.2941 110.685C34.4531 121.47 45.2705 132.079 59.7422 135.619C40.3761 137.44 22.3185 125.257 16.093 103.341C30.5892 99.0059 43.8214 101.453 56.0805 110.773Z" fill="#5FBBF6"/>
<path d="M133.982 44.645C132.572 43.8051 131.225 42.4963 129.767 41.3258C125.595 37.9762 121.378 34.6827 116.729 31.0127C111.449 42.9974 112.579 53.2544 118.071 63.639C109.061 56.5648 103.85 47.161 104.096 35.3607C104.217 29.5412 105.176 23.7155 106.145 17.9584C106.326 16.8875 108.779 15.0995 109.488 15.3828C120.209 19.6695 131.805 31.1027 133.982 44.645Z" fill="#5FBBF6"/>
<path d="M134.907 47.738C134.418 47.2839 134.008 46.4664 133.769 45.333C134.289 45.8029 134.638 46.5888 134.907 47.738Z" fill="#5FBBF6"/>
<path d="M118.041 64.2593C118.322 64.1689 118.656 64.3723 119.03 64.8923C118.745 64.9904 118.418 64.7718 118.041 64.2593Z" fill="#5FBBF6"/>
</svg>
